# xmcd CD database file generated by Grip 3.2.0
# 
# Track frame offsets:
#       150
#       22220
#       47617
#       66712
#       87820
#       105592
#       122945
#       148012
#       168795
#       184227
#       205640
# 
# Disc length: 3004 seconds
# 
# Revision: 3
# Processed by: cddbd v1.5.2PL0 Copyright (c) Steve Scherf et al.
# Submitted via: Grip 3.2.0
# 
DISCID=9d0bba0b
DTITLE=岡崎律子 - for RITZ
DYEAR=2004
DGENRE=JPop
TTITLE0=空の向こうに
TTITLE1=I’m always close to you
TTITLE2=秘密
TTITLE3=いつでも微笑みを
TTITLE4=雨のmusique
TTITLE5=メロディー
TTITLE6=リセエンヌ
TTITLE7=Hello!
TTITLE8=fay
TTITLE9=涙がほおを流れても
TTITLE10=For フルーツバスケット
EXTD=YEAR: 2004
EXTT0=
EXTT1=
EXTT2=
EXTT3=
EXTT4=
EXTT5=
EXTT6=
EXTT7=
EXTT8=
EXTT9=
EXTT10=
PLAYORDER=
